<mxfile host="Electron" modified="2023-12-25T01:18:10.945Z" agent="Mozilla/5.0 (Windows NT 10.0; Win64; x64) AppleWebKit/537.36 (KHTML, like Gecko) draw.io/22.1.11 Chrome/114.0.5735.289 Electron/25.9.8 Safari/537.36" etag="FLWk5rD0uDaBk_NzF0GZ" version="22.1.11" type="device" pages="2">
  <diagram name="linear search flowchart" id="GPRWNofgy8FLtJxIam--">
    <mxGraphModel dx="1183" dy="827" grid="1" gridSize="10" guides="1" tooltips="1" connect="1" arrows="1" fold="1" page="1" pageScale="1" pageWidth="827" pageHeight="1169" math="0" shadow="0">
      <root>
        <mxCell id="FcQ-IKqGeZoEcgifagWt-0" />
        <mxCell id="FcQ-IKqGeZoEcgifagWt-1" parent="FcQ-IKqGeZoEcgifagWt-0" />
        <mxCell id="FcQ-IKqGeZoEcgifagWt-2" value="Begin" style="strokeWidth=2;html=1;shape=mxgraph.flowchart.terminator;whiteSpace=wrap;fontSize=20;fontFamily=consolas;strokeColor=#00FF80;fontColor=#00FF80;fillColor=none;" parent="FcQ-IKqGeZoEcgifagWt-1" vertex="1">
          <mxGeometry x="280" y="260" width="120" height="60" as="geometry" />
        </mxCell>
        <mxCell id="FcQ-IKqGeZoEcgifagWt-4" value="i = 0" style="rounded=1;whiteSpace=wrap;html=1;absoluteArcSize=1;arcSize=14;strokeWidth=2;fontFamily=consolas;fontSize=20;strokeColor=#FF8433;fontColor=#FF8433;fillColor=none;" parent="FcQ-IKqGeZoEcgifagWt-1" vertex="1">
          <mxGeometry x="260" y="460" width="160" height="60" as="geometry" />
        </mxCell>
        <mxCell id="FcQ-IKqGeZoEcgifagWt-5" value="" style="endArrow=classic;html=1;fontFamily=consolas;fontSize=20;strokeWidth=3;fillColor=#a20025;strokeColor=#00FF80;exitX=0.5;exitY=1;exitDx=0;exitDy=0;exitPerimeter=0;entryX=0.5;entryY=0;entryDx=0;entryDy=0;" parent="FcQ-IKqGeZoEcgifagWt-1" source="FcQ-IKqGeZoEcgifagWt-2" target="5zfKcHojwFzQb-mzM9M2-0" edge="1">
          <mxGeometry width="50" height="50" relative="1" as="geometry">
            <mxPoint x="560" y="580" as="sourcePoint" />
            <mxPoint x="330" y="280" as="targetPoint" />
          </mxGeometry>
        </mxCell>
        <mxCell id="FcQ-IKqGeZoEcgifagWt-6" value="" style="endArrow=classic;html=1;fontFamily=consolas;fontSize=20;strokeWidth=3;fillColor=#a20025;strokeColor=#0099CC;exitX=0.5;exitY=1;exitDx=0;exitDy=0;entryX=0.5;entryY=0;entryDx=0;entryDy=0;" parent="FcQ-IKqGeZoEcgifagWt-1" source="5zfKcHojwFzQb-mzM9M2-0" target="FcQ-IKqGeZoEcgifagWt-4" edge="1">
          <mxGeometry width="50" height="50" relative="1" as="geometry">
            <mxPoint x="340" y="400" as="sourcePoint" />
            <mxPoint x="550" y="450" as="targetPoint" />
          </mxGeometry>
        </mxCell>
        <mxCell id="FcQ-IKqGeZoEcgifagWt-7" value="True" style="endArrow=classic;html=1;fontFamily=consolas;fontSize=20;strokeWidth=3;fillColor=#a20025;strokeColor=#FF8433;exitX=1;exitY=0.5;exitDx=0;exitDy=0;exitPerimeter=0;entryX=0;entryY=0.5;entryDx=0;entryDy=0;fontColor=#FF8433;labelBackgroundColor=none;" parent="FcQ-IKqGeZoEcgifagWt-1" source="FcQ-IKqGeZoEcgifagWt-17" target="FcQ-IKqGeZoEcgifagWt-25" edge="1">
          <mxGeometry x="0.0204" y="20" width="50" height="50" relative="1" as="geometry">
            <mxPoint x="830" y="500" as="sourcePoint" />
            <mxPoint x="340" y="780" as="targetPoint" />
            <mxPoint as="offset" />
          </mxGeometry>
        </mxCell>
        <mxCell id="FcQ-IKqGeZoEcgifagWt-9" value="i &amp;lt; n" style="strokeWidth=2;html=1;shape=mxgraph.flowchart.decision;whiteSpace=wrap;fontFamily=consolas;fontSize=20;strokeColor=#FF8433;fontColor=#FF8433;fillColor=none;" parent="FcQ-IKqGeZoEcgifagWt-1" vertex="1">
          <mxGeometry x="220" y="557" width="240" height="63" as="geometry" />
        </mxCell>
        <mxCell id="FcQ-IKqGeZoEcgifagWt-10" value="" style="endArrow=classic;html=1;fontFamily=consolas;fontSize=20;strokeWidth=3;fillColor=#a20025;strokeColor=#FF8433;exitX=0.5;exitY=1;exitDx=0;exitDy=0;entryX=0.5;entryY=0;entryDx=0;entryDy=0;entryPerimeter=0;" parent="FcQ-IKqGeZoEcgifagWt-1" source="FcQ-IKqGeZoEcgifagWt-4" target="FcQ-IKqGeZoEcgifagWt-9" edge="1">
          <mxGeometry width="50" height="50" relative="1" as="geometry">
            <mxPoint x="339.5" y="625" as="sourcePoint" />
            <mxPoint x="339.5" y="685" as="targetPoint" />
          </mxGeometry>
        </mxCell>
        <mxCell id="FcQ-IKqGeZoEcgifagWt-13" value="End" style="strokeWidth=2;html=1;shape=mxgraph.flowchart.terminator;whiteSpace=wrap;fontSize=20;strokeColor=#FF0000;fontColor=#FF0000;fillColor=none;fontFamily=consolas;" parent="FcQ-IKqGeZoEcgifagWt-1" vertex="1">
          <mxGeometry x="740" y="660" width="120" height="60" as="geometry" />
        </mxCell>
        <mxCell id="FcQ-IKqGeZoEcgifagWt-15" value="i = i + 1" style="rounded=1;whiteSpace=wrap;html=1;absoluteArcSize=1;arcSize=14;strokeWidth=2;fontFamily=consolas;fontSize=20;strokeColor=#FF8433;fontColor=#FF8433;fillColor=none;" parent="FcQ-IKqGeZoEcgifagWt-1" vertex="1">
          <mxGeometry x="60" y="562" width="130" height="58" as="geometry" />
        </mxCell>
        <mxCell id="FcQ-IKqGeZoEcgifagWt-16" value="" style="endArrow=classic;html=1;fontFamily=consolas;fontSize=20;strokeWidth=3;fillColor=#a20025;strokeColor=#FF8433;exitX=0.5;exitY=0;exitDx=0;exitDy=0;" parent="FcQ-IKqGeZoEcgifagWt-1" source="FcQ-IKqGeZoEcgifagWt-15" edge="1">
          <mxGeometry width="50" height="50" relative="1" as="geometry">
            <mxPoint x="125" y="550" as="sourcePoint" />
            <mxPoint x="340" y="530" as="targetPoint" />
            <Array as="points">
              <mxPoint x="125" y="530" />
            </Array>
          </mxGeometry>
        </mxCell>
        <mxCell id="FcQ-IKqGeZoEcgifagWt-17" value="A[i] == k" style="strokeWidth=2;html=1;shape=mxgraph.flowchart.decision;whiteSpace=wrap;fontFamily=consolas;fontSize=18;strokeColor=#FF8433;fontColor=#FF8433;fillColor=none;" parent="FcQ-IKqGeZoEcgifagWt-1" vertex="1">
          <mxGeometry x="220" y="660" width="240" height="60" as="geometry" />
        </mxCell>
        <mxCell id="FcQ-IKqGeZoEcgifagWt-18" value="" style="endArrow=classic;html=1;fontFamily=consolas;fontSize=20;strokeWidth=3;fillColor=#a20025;strokeColor=#FF8433;exitX=0.5;exitY=1;exitDx=0;exitDy=0;entryX=0.5;entryY=0;entryDx=0;entryDy=0;entryPerimeter=0;exitPerimeter=0;" parent="FcQ-IKqGeZoEcgifagWt-1" source="FcQ-IKqGeZoEcgifagWt-9" target="FcQ-IKqGeZoEcgifagWt-17" edge="1">
          <mxGeometry width="50" height="50" relative="1" as="geometry">
            <mxPoint x="350" y="510" as="sourcePoint" />
            <mxPoint x="350" y="565" as="targetPoint" />
          </mxGeometry>
        </mxCell>
        <mxCell id="FcQ-IKqGeZoEcgifagWt-19" value="True" style="edgeLabel;html=1;align=center;verticalAlign=middle;resizable=0;points=[];fontFamily=consolas;fontSize=20;fontColor=#FF8433;labelBackgroundColor=none;" parent="FcQ-IKqGeZoEcgifagWt-1" vertex="1" connectable="0">
          <mxGeometry x="369.99990606410006" y="630.0017532594911" as="geometry" />
        </mxCell>
        <mxCell id="FcQ-IKqGeZoEcgifagWt-20" value="False" style="endArrow=classic;html=1;fontFamily=consolas;fontSize=20;strokeWidth=3;fillColor=#a20025;strokeColor=#FF8433;exitX=1;exitY=0.5;exitDx=0;exitDy=0;exitPerimeter=0;entryX=0;entryY=0.5;entryDx=0;entryDy=0;fontColor=#FF8433;labelBackgroundColor=none;" parent="FcQ-IKqGeZoEcgifagWt-1" source="FcQ-IKqGeZoEcgifagWt-9" target="dh802dqac77_ImnmBCvQ-0" edge="1">
          <mxGeometry x="0.0204" y="19" width="50" height="50" relative="1" as="geometry">
            <mxPoint x="350" y="625" as="sourcePoint" />
            <mxPoint x="478.4000000000001" y="588.5" as="targetPoint" />
            <Array as="points" />
            <mxPoint as="offset" />
          </mxGeometry>
        </mxCell>
        <mxCell id="FcQ-IKqGeZoEcgifagWt-23" value="False" style="endArrow=classic;html=1;fontFamily=consolas;fontSize=20;strokeWidth=3;fillColor=#a20025;strokeColor=#FF8433;exitX=0;exitY=0.5;exitDx=0;exitDy=0;exitPerimeter=0;entryX=0.5;entryY=1;entryDx=0;entryDy=0;fontColor=#FF8433;labelBackgroundColor=none;" parent="FcQ-IKqGeZoEcgifagWt-1" source="FcQ-IKqGeZoEcgifagWt-17" target="FcQ-IKqGeZoEcgifagWt-15" edge="1">
          <mxGeometry x="-0.6364" y="-20" width="50" height="50" relative="1" as="geometry">
            <mxPoint x="244" y="690" as="sourcePoint" />
            <mxPoint x="125" y="648" as="targetPoint" />
            <Array as="points">
              <mxPoint x="125" y="690" />
            </Array>
            <mxPoint as="offset" />
          </mxGeometry>
        </mxCell>
        <mxCell id="FcQ-IKqGeZoEcgifagWt-25" value="Output: i" style="shape=parallelogram;html=1;strokeWidth=2;perimeter=parallelogramPerimeter;whiteSpace=wrap;rounded=1;arcSize=12;size=0.23;fontSize=20;fontFamily=consolas;strokeColor=#FF748C;fontColor=#ff748c;fillColor=none;" parent="FcQ-IKqGeZoEcgifagWt-1" vertex="1">
          <mxGeometry x="520" y="660" width="160" height="60" as="geometry" />
        </mxCell>
        <mxCell id="FcQ-IKqGeZoEcgifagWt-26" value="" style="endArrow=classic;html=1;fontFamily=consolas;fontSize=20;strokeWidth=3;fillColor=#a20025;strokeColor=#FF748C;exitX=1;exitY=0.5;exitDx=0;exitDy=0;fontColor=#ff748c;" parent="FcQ-IKqGeZoEcgifagWt-1" source="FcQ-IKqGeZoEcgifagWt-25" edge="1">
          <mxGeometry width="50" height="50" relative="1" as="geometry">
            <mxPoint x="670" y="690" as="sourcePoint" />
            <mxPoint x="740" y="690" as="targetPoint" />
          </mxGeometry>
        </mxCell>
        <mxCell id="5zfKcHojwFzQb-mzM9M2-0" value="Input: A, n, k&lt;i&gt;&lt;br&gt;&lt;/i&gt;" style="shape=parallelogram;html=1;strokeWidth=2;perimeter=parallelogramPerimeter;whiteSpace=wrap;rounded=1;arcSize=12;size=0.23;fontSize=20;fontFamily=consolas;strokeColor=#0099CC;fillColor=none;gradientColor=#ffd966;fontColor=#0099CC;" parent="FcQ-IKqGeZoEcgifagWt-1" vertex="1">
          <mxGeometry x="210" y="360" width="260" height="60" as="geometry" />
        </mxCell>
        <mxCell id="dh802dqac77_ImnmBCvQ-0" value="Output: -1" style="shape=parallelogram;html=1;strokeWidth=2;perimeter=parallelogramPerimeter;whiteSpace=wrap;rounded=1;arcSize=12;size=0.23;fontSize=20;fontFamily=consolas;strokeColor=#FF748C;fontColor=#ff748c;fillColor=none;" parent="FcQ-IKqGeZoEcgifagWt-1" vertex="1">
          <mxGeometry x="520" y="558.5" width="160" height="60" as="geometry" />
        </mxCell>
        <mxCell id="dh802dqac77_ImnmBCvQ-1" value="" style="endArrow=classic;html=1;fontFamily=consolas;fontSize=20;strokeWidth=3;fillColor=#a20025;strokeColor=#FF748C;exitX=1;exitY=0.5;exitDx=0;exitDy=0;entryX=0.5;entryY=0;entryDx=0;entryDy=0;entryPerimeter=0;fontColor=#ff748c;" parent="FcQ-IKqGeZoEcgifagWt-1" source="dh802dqac77_ImnmBCvQ-0" target="FcQ-IKqGeZoEcgifagWt-13" edge="1">
          <mxGeometry width="50" height="50" relative="1" as="geometry">
            <mxPoint x="430" y="598.5" as="sourcePoint" />
            <mxPoint x="548.4000000000001" y="597" as="targetPoint" />
            <Array as="points">
              <mxPoint x="800" y="587" />
            </Array>
          </mxGeometry>
        </mxCell>
      </root>
    </mxGraphModel>
  </diagram>
  <diagram name="binary search flowchart" id="YCQVdB1SrxnCD-XDPt9D">
    <mxGraphModel dx="2498" dy="1167" grid="1" gridSize="10" guides="1" tooltips="1" connect="1" arrows="1" fold="1" page="1" pageScale="1" pageWidth="827" pageHeight="1169" math="0" shadow="0">
      <root>
        <mxCell id="HADdj52Uf5GiFGu9Oyp5-0" />
        <mxCell id="HADdj52Uf5GiFGu9Oyp5-1" parent="HADdj52Uf5GiFGu9Oyp5-0" />
        <mxCell id="HADdj52Uf5GiFGu9Oyp5-2" value="Begin" style="strokeWidth=2;html=1;shape=mxgraph.flowchart.terminator;whiteSpace=wrap;fontSize=20;fontFamily=consolas;strokeColor=#00FF80;fontColor=#00FF80;fillColor=none;" parent="HADdj52Uf5GiFGu9Oyp5-1" vertex="1">
          <mxGeometry x="280" y="180" width="120" height="60" as="geometry" />
        </mxCell>
        <mxCell id="HADdj52Uf5GiFGu9Oyp5-3" value="Input: A, n, k&lt;i&gt;&lt;br&gt;&lt;/i&gt;" style="shape=parallelogram;html=1;strokeWidth=2;perimeter=parallelogramPerimeter;whiteSpace=wrap;rounded=1;arcSize=12;size=0.23;fontSize=20;fontFamily=consolas;strokeColor=#0099CC;fillColor=none;gradientColor=#ffd966;fontColor=#0099CC;" parent="HADdj52Uf5GiFGu9Oyp5-1" vertex="1">
          <mxGeometry x="210" y="280" width="260" height="60" as="geometry" />
        </mxCell>
        <mxCell id="HADdj52Uf5GiFGu9Oyp5-4" value="left = 0&lt;br&gt;right = n - 1" style="rounded=1;whiteSpace=wrap;html=1;absoluteArcSize=1;arcSize=14;strokeWidth=2;fontFamily=consolas;fontSize=20;strokeColor=#00E673;fontColor=#00E673;fillColor=none;align=left;spacingLeft=12;" parent="HADdj52Uf5GiFGu9Oyp5-1" vertex="1">
          <mxGeometry x="240" y="380" width="200" height="82.5" as="geometry" />
        </mxCell>
        <mxCell id="HADdj52Uf5GiFGu9Oyp5-5" value="" style="endArrow=classic;html=1;fontFamily=Roboto;fontSource=https%3A%2F%2Ffonts.google.com%2Fspecimen%2FRoboto;fontSize=20;strokeWidth=3;fillColor=#a20025;strokeColor=#00FF80;exitX=0.5;exitY=1;exitDx=0;exitDy=0;exitPerimeter=0;entryX=0.5;entryY=0;entryDx=0;entryDy=0;" parent="HADdj52Uf5GiFGu9Oyp5-1" source="HADdj52Uf5GiFGu9Oyp5-2" target="HADdj52Uf5GiFGu9Oyp5-3" edge="1">
          <mxGeometry width="50" height="50" relative="1" as="geometry">
            <mxPoint x="560" y="470" as="sourcePoint" />
            <mxPoint x="330" y="170" as="targetPoint" />
          </mxGeometry>
        </mxCell>
        <mxCell id="HADdj52Uf5GiFGu9Oyp5-6" value="" style="endArrow=classic;html=1;fontFamily=Roboto;fontSource=https%3A%2F%2Ffonts.google.com%2Fspecimen%2FRoboto;fontSize=20;strokeWidth=3;fillColor=#a20025;strokeColor=#0099CC;exitX=0.5;exitY=1;exitDx=0;exitDy=0;entryX=0.5;entryY=0;entryDx=0;entryDy=0;" parent="HADdj52Uf5GiFGu9Oyp5-1" source="HADdj52Uf5GiFGu9Oyp5-3" target="HADdj52Uf5GiFGu9Oyp5-4" edge="1">
          <mxGeometry width="50" height="50" relative="1" as="geometry">
            <mxPoint x="550" y="280" as="sourcePoint" />
            <mxPoint x="550" y="340" as="targetPoint" />
          </mxGeometry>
        </mxCell>
        <mxCell id="HADdj52Uf5GiFGu9Oyp5-11" value="End" style="strokeWidth=2;html=1;shape=mxgraph.flowchart.terminator;whiteSpace=wrap;fontSize=20;strokeColor=#FF0000;fontColor=#FF0000;fillColor=none;fontFamily=consolas;" parent="HADdj52Uf5GiFGu9Oyp5-1" vertex="1">
          <mxGeometry x="780" y="700" width="120" height="60" as="geometry" />
        </mxCell>
        <mxCell id="HADdj52Uf5GiFGu9Oyp5-13" value="" style="endArrow=classic;html=1;fontFamily=Roboto;fontSource=https%3A%2F%2Ffonts.google.com%2Fspecimen%2FRoboto;fontSize=20;strokeWidth=3;fillColor=#a20025;strokeColor=#00E673;" parent="HADdj52Uf5GiFGu9Oyp5-1" source="oqHRHDzHuFoXBvJFYXXt-8" edge="1">
          <mxGeometry width="50" height="50" relative="1" as="geometry">
            <mxPoint x="15" y="700" as="sourcePoint" />
            <mxPoint x="340" y="480" as="targetPoint" />
            <Array as="points">
              <mxPoint x="40" y="480" />
            </Array>
          </mxGeometry>
        </mxCell>
        <mxCell id="HADdj52Uf5GiFGu9Oyp5-14" value="left &amp;lt;= right" style="strokeWidth=2;html=1;shape=mxgraph.flowchart.decision;whiteSpace=wrap;fontFamily=consolas;fontSize=18;strokeColor=#00E673;fontColor=#00E673;fillColor=none;" parent="HADdj52Uf5GiFGu9Oyp5-1" vertex="1">
          <mxGeometry x="200" y="500" width="280" height="60" as="geometry" />
        </mxCell>
        <mxCell id="HADdj52Uf5GiFGu9Oyp5-15" value="" style="endArrow=classic;html=1;fontFamily=Roboto;fontSource=https%3A%2F%2Ffonts.google.com%2Fspecimen%2FRoboto;fontSize=20;strokeWidth=3;fillColor=#a20025;strokeColor=#FFCC3B;entryX=0.5;entryY=0;entryDx=0;entryDy=0;entryPerimeter=0;exitX=0.5;exitY=1;exitDx=0;exitDy=0;" parent="HADdj52Uf5GiFGu9Oyp5-1" source="HADdj52Uf5GiFGu9Oyp5-23" target="oqHRHDzHuFoXBvJFYXXt-0" edge="1">
          <mxGeometry width="50" height="50" relative="1" as="geometry">
            <mxPoint x="340" y="520" as="sourcePoint" />
            <mxPoint x="350" y="565" as="targetPoint" />
          </mxGeometry>
        </mxCell>
        <mxCell id="HADdj52Uf5GiFGu9Oyp5-17" value="" style="endArrow=classic;html=1;fontFamily=Roboto;fontSource=https%3A%2F%2Ffonts.google.com%2Fspecimen%2FRoboto;fontSize=20;strokeWidth=3;fillColor=#a20025;strokeColor=#00E673;exitX=0;exitY=0.5;exitDx=0;exitDy=0;entryX=0.5;entryY=1;entryDx=0;entryDy=0;" parent="HADdj52Uf5GiFGu9Oyp5-1" source="oqHRHDzHuFoXBvJFYXXt-7" target="oqHRHDzHuFoXBvJFYXXt-8" edge="1">
          <mxGeometry width="50" height="50" relative="1" as="geometry">
            <mxPoint x="350" y="625" as="sourcePoint" />
            <mxPoint x="478.4000000000001" y="588.5" as="targetPoint" />
            <Array as="points">
              <mxPoint x="40" y="930" />
            </Array>
          </mxGeometry>
        </mxCell>
        <mxCell id="HADdj52Uf5GiFGu9Oyp5-22" value="" style="endArrow=classic;html=1;fontFamily=Roboto;fontSource=https%3A%2F%2Ffonts.google.com%2Fspecimen%2FRoboto;fontSize=20;strokeWidth=3;fillColor=#a20025;strokeColor=#FF748C;exitX=1;exitY=0.5;exitDx=0;exitDy=0;entryX=0;entryY=0.5;entryDx=0;entryDy=0;entryPerimeter=0;" parent="HADdj52Uf5GiFGu9Oyp5-1" source="oqHRHDzHuFoXBvJFYXXt-6" target="HADdj52Uf5GiFGu9Oyp5-11" edge="1">
          <mxGeometry width="50" height="50" relative="1" as="geometry">
            <mxPoint x="670" y="700" as="sourcePoint" />
            <mxPoint x="760" y="750" as="targetPoint" />
          </mxGeometry>
        </mxCell>
        <mxCell id="HADdj52Uf5GiFGu9Oyp5-23" value="mid = (left + right) / 2" style="rounded=1;whiteSpace=wrap;html=1;absoluteArcSize=1;arcSize=14;strokeWidth=2;fontFamily=consolas;fontSize=20;strokeColor=#FFCC3B;fontColor=#FFCC3B;fillColor=none;" parent="HADdj52Uf5GiFGu9Oyp5-1" vertex="1">
          <mxGeometry x="200" y="600" width="280" height="58" as="geometry" />
        </mxCell>
        <mxCell id="HADdj52Uf5GiFGu9Oyp5-24" value="" style="endArrow=classic;html=1;fontFamily=Roboto;fontSource=https%3A%2F%2Ffonts.google.com%2Fspecimen%2FRoboto;fontSize=20;strokeWidth=3;fillColor=#a20025;strokeColor=#00E673;entryX=0.5;entryY=0;entryDx=0;entryDy=0;entryPerimeter=0;fontColor=#00E673;" parent="HADdj52Uf5GiFGu9Oyp5-1" source="HADdj52Uf5GiFGu9Oyp5-4" target="HADdj52Uf5GiFGu9Oyp5-14" edge="1">
          <mxGeometry width="50" height="50" relative="1" as="geometry">
            <mxPoint x="610" y="420" as="sourcePoint" />
            <mxPoint x="870" y="344.5" as="targetPoint" />
          </mxGeometry>
        </mxCell>
        <mxCell id="HADdj52Uf5GiFGu9Oyp5-26" value="" style="endArrow=classic;html=1;fontFamily=Roboto;fontSource=https%3A%2F%2Ffonts.google.com%2Fspecimen%2FRoboto;fontSize=20;strokeWidth=3;fillColor=#a20025;strokeColor=#00E673;exitX=0.5;exitY=1;exitDx=0;exitDy=0;exitPerimeter=0;entryX=0.5;entryY=0;entryDx=0;entryDy=0;" parent="HADdj52Uf5GiFGu9Oyp5-1" source="HADdj52Uf5GiFGu9Oyp5-14" target="HADdj52Uf5GiFGu9Oyp5-23" edge="1">
          <mxGeometry width="50" height="50" relative="1" as="geometry">
            <mxPoint x="340" y="900" as="sourcePoint" />
            <mxPoint x="340" y="840" as="targetPoint" />
          </mxGeometry>
        </mxCell>
        <mxCell id="HADdj52Uf5GiFGu9Oyp5-27" value="True" style="edgeLabel;html=1;align=center;verticalAlign=middle;resizable=0;points=[];fontFamily=consolas;fontSize=20;fontColor=#00E673;labelBackgroundColor=none;" parent="HADdj52Uf5GiFGu9Oyp5-26" vertex="1" connectable="0">
          <mxGeometry x="-0.4381" y="-2" relative="1" as="geometry">
            <mxPoint x="32" y="6" as="offset" />
          </mxGeometry>
        </mxCell>
        <mxCell id="HADdj52Uf5GiFGu9Oyp5-30" value="A[mid] &amp;lt; k" style="strokeWidth=2;html=1;shape=mxgraph.flowchart.decision;whiteSpace=wrap;fontFamily=consolas;fontSize=18;strokeColor=#FFCC3B;fontColor=#FFCC3B;fillColor=none;" parent="HADdj52Uf5GiFGu9Oyp5-1" vertex="1">
          <mxGeometry x="200" y="800" width="280" height="60" as="geometry" />
        </mxCell>
        <mxCell id="HADdj52Uf5GiFGu9Oyp5-32" value="True" style="endArrow=classic;html=1;fontFamily=consolas;fontSize=20;strokeWidth=3;fillColor=#a20025;strokeColor=#FFCC3B;exitX=0.5;exitY=1;exitDx=0;exitDy=0;exitPerimeter=0;entryX=0.5;entryY=0;entryDx=0;entryDy=0;fontColor=#FFCC3B;labelBackgroundColor=none;" parent="HADdj52Uf5GiFGu9Oyp5-1" source="HADdj52Uf5GiFGu9Oyp5-30" target="oqHRHDzHuFoXBvJFYXXt-7" edge="1">
          <mxGeometry y="40" width="50" height="50" relative="1" as="geometry">
            <mxPoint x="305.8" y="1090" as="sourcePoint" />
            <mxPoint x="340" y="970" as="targetPoint" />
            <mxPoint as="offset" />
          </mxGeometry>
        </mxCell>
        <mxCell id="oqHRHDzHuFoXBvJFYXXt-0" value="A[mid] == k" style="strokeWidth=2;html=1;shape=mxgraph.flowchart.decision;whiteSpace=wrap;fontFamily=consolas;fontSize=18;strokeColor=#FFCC3B;fontColor=#FFCC3B;fillColor=none;" parent="HADdj52Uf5GiFGu9Oyp5-1" vertex="1">
          <mxGeometry x="200" y="700" width="280" height="60" as="geometry" />
        </mxCell>
        <mxCell id="oqHRHDzHuFoXBvJFYXXt-2" value="False" style="endArrow=classic;html=1;fontFamily=consolas;fontSize=20;strokeWidth=3;fillColor=#a20025;strokeColor=#FFCC3B;exitX=0.5;exitY=1;exitDx=0;exitDy=0;exitPerimeter=0;entryX=0.5;entryY=0;entryDx=0;entryDy=0;entryPerimeter=0;fontColor=#FFCC3B;labelBackgroundColor=none;" parent="HADdj52Uf5GiFGu9Oyp5-1" source="oqHRHDzHuFoXBvJFYXXt-0" target="HADdj52Uf5GiFGu9Oyp5-30" edge="1">
          <mxGeometry y="40" width="50" height="50" relative="1" as="geometry">
            <mxPoint x="494.5" y="740" as="sourcePoint" />
            <mxPoint x="574.5" y="740" as="targetPoint" />
            <mxPoint as="offset" />
          </mxGeometry>
        </mxCell>
        <mxCell id="oqHRHDzHuFoXBvJFYXXt-4" value="True" style="endArrow=classic;html=1;fontFamily=consolas;fontSize=20;strokeWidth=3;fillColor=#a20025;strokeColor=#FFCC3B;exitX=1;exitY=0.5;exitDx=0;exitDy=0;exitPerimeter=0;entryX=0;entryY=0.5;entryDx=0;entryDy=0;fontColor=#FFCC3B;labelBackgroundColor=none;" parent="HADdj52Uf5GiFGu9Oyp5-1" source="oqHRHDzHuFoXBvJFYXXt-0" target="oqHRHDzHuFoXBvJFYXXt-6" edge="1">
          <mxGeometry x="-0.0226" y="20" width="50" height="50" relative="1" as="geometry">
            <mxPoint x="490" y="640" as="sourcePoint" />
            <mxPoint x="560" y="750" as="targetPoint" />
            <mxPoint as="offset" />
          </mxGeometry>
        </mxCell>
        <mxCell id="oqHRHDzHuFoXBvJFYXXt-6" value="Output: &lt;span&gt;mid&lt;/span&gt;" style="shape=parallelogram;html=1;strokeWidth=2;perimeter=parallelogramPerimeter;whiteSpace=wrap;rounded=1;arcSize=12;size=0.23;fontSize=20;fontFamily=consolas;strokeColor=#FF748C;fontColor=#FF748C;fillColor=none;fontStyle=0" parent="HADdj52Uf5GiFGu9Oyp5-1" vertex="1">
          <mxGeometry x="540" y="700" width="190" height="60" as="geometry" />
        </mxCell>
        <mxCell id="oqHRHDzHuFoXBvJFYXXt-7" value="left = mid + 1" style="rounded=1;whiteSpace=wrap;html=1;absoluteArcSize=1;arcSize=14;strokeWidth=2;fontFamily=consolas;fontSize=20;strokeColor=#00E673;fontColor=#00E673;fillColor=none;" parent="HADdj52Uf5GiFGu9Oyp5-1" vertex="1">
          <mxGeometry x="240" y="900" width="200" height="58" as="geometry" />
        </mxCell>
        <mxCell id="oqHRHDzHuFoXBvJFYXXt-8" value="right = mid - 1" style="rounded=1;whiteSpace=wrap;html=1;absoluteArcSize=1;arcSize=14;strokeWidth=2;fontFamily=consolas;fontSize=20;strokeColor=#00E673;fontColor=#00E673;fillColor=none;" parent="HADdj52Uf5GiFGu9Oyp5-1" vertex="1">
          <mxGeometry x="-60" y="801" width="200" height="58" as="geometry" />
        </mxCell>
        <mxCell id="oqHRHDzHuFoXBvJFYXXt-9" value="False" style="endArrow=classic;html=1;fontFamily=consolas;fontSize=20;strokeWidth=3;fillColor=#a20025;strokeColor=#FFCC3B;exitX=0;exitY=0.5;exitDx=0;exitDy=0;exitPerimeter=0;entryX=1;entryY=0.5;entryDx=0;entryDy=0;fontColor=#FFCC3B;labelBackgroundColor=none;" parent="HADdj52Uf5GiFGu9Oyp5-1" source="HADdj52Uf5GiFGu9Oyp5-30" target="oqHRHDzHuFoXBvJFYXXt-8" edge="1">
          <mxGeometry x="-0.3333" y="-20" width="50" height="50" relative="1" as="geometry">
            <mxPoint x="490" y="880" as="sourcePoint" />
            <mxPoint x="524.1999999999998" y="960" as="targetPoint" />
            <mxPoint as="offset" />
          </mxGeometry>
        </mxCell>
        <mxCell id="oqHRHDzHuFoXBvJFYXXt-12" value="False" style="endArrow=classic;html=1;fontFamily=consolas;fontSize=20;strokeWidth=3;fillColor=#a20025;strokeColor=#00E673;exitX=1;exitY=0.5;exitDx=0;exitDy=0;exitPerimeter=0;entryX=0;entryY=0.5;entryDx=0;entryDy=0;fontColor=#00E673;labelBackgroundColor=none;" parent="HADdj52Uf5GiFGu9Oyp5-1" source="HADdj52Uf5GiFGu9Oyp5-14" target="iPWritq_YYHfg-mIPsiz-1" edge="1">
          <mxGeometry x="-0.0226" y="20" width="50" height="50" relative="1" as="geometry">
            <mxPoint x="490" y="760" as="sourcePoint" />
            <mxPoint x="568.4000000000001" y="760" as="targetPoint" />
            <Array as="points" />
            <mxPoint as="offset" />
          </mxGeometry>
        </mxCell>
        <mxCell id="iPWritq_YYHfg-mIPsiz-1" value="Output: &lt;span&gt;-1&lt;/span&gt;" style="shape=parallelogram;html=1;strokeWidth=2;perimeter=parallelogramPerimeter;whiteSpace=wrap;rounded=1;arcSize=12;size=0.23;fontSize=20;fontFamily=consolas;strokeColor=#FF748C;fontColor=#FF748C;fillColor=none;fontStyle=0" parent="HADdj52Uf5GiFGu9Oyp5-1" vertex="1">
          <mxGeometry x="540" y="500" width="190" height="60" as="geometry" />
        </mxCell>
        <mxCell id="iPWritq_YYHfg-mIPsiz-2" value="" style="endArrow=classic;html=1;fontFamily=Roboto;fontSource=https%3A%2F%2Ffonts.google.com%2Fspecimen%2FRoboto;fontSize=20;strokeWidth=3;fillColor=#a20025;strokeColor=#FF748C;exitX=1;exitY=0.5;exitDx=0;exitDy=0;entryX=0.5;entryY=0;entryDx=0;entryDy=0;entryPerimeter=0;" parent="HADdj52Uf5GiFGu9Oyp5-1" source="iPWritq_YYHfg-mIPsiz-1" target="HADdj52Uf5GiFGu9Oyp5-11" edge="1">
          <mxGeometry width="50" height="50" relative="1" as="geometry">
            <mxPoint x="718.1500000000001" y="740" as="sourcePoint" />
            <mxPoint x="790" y="740" as="targetPoint" />
            <Array as="points">
              <mxPoint x="840" y="530" />
            </Array>
          </mxGeometry>
        </mxCell>
      </root>
    </mxGraphModel>
  </diagram>
</mxfile>
